<?xml version="1.0" encoding="UTF-8"?>
<svg width="1600px" height="1200px" viewBox="0 0 1600 1200" version="1.1" xmlns="http://www.w3.org/2000/svg" xmlns:xlink="http://www.w3.org/1999/xlink">
    <!-- Generator: Sketch 51.3 (57544) - http://www.bohemiancoding.com/sketch -->
   <style type="text/css">
	.st0{fill:#FFFFFF;}
</style>
    <title>Custom Preset</title>
    <desc>Created with Sketch.</desc>
    <defs></defs>
    <g id="Custom-Preset" stroke="none" stroke-width="1" fill="none" fill-rule="evenodd">
   <path class="st0" d="M1355.5,439.4h-65.8v321.3h65.8v-92.2l37.1-42.1l94.4,134.2h77l-128-183.9l120.4-137.4h-77l-123.9,145.9
		L1355.5,439.4L1355.5,439.4z M1268.7,439.4h-65.8v321.3h65.8V439.4z M1027.3,760.6V633.1h128.9v-56.8h-128.9v-80.1h154.4v-56.8
		H962.4v321.3H1027.3z M782.4,512.3L828,635.8h-90.8L782.4,512.3z M745.7,439.4L625.8,760.6h65.3l25.5-68.9h132.5l25.5,68.9h66.7
		L820.9,439.4H745.7z M411.2,586.1v-90.8h62.2c38.5,0,58.2,16.6,58.2,45.6c0,28.6-19.7,45.2-58.2,45.2H411.2z M411.2,641.2H456
		l74.3,119.5h75.2l-80.1-125.7c45.2-13,71.6-45.6,71.6-94.4c0-66.2-46.1-101.1-119.9-101.1H345.4v321.3h65.8V641.2z M266,760.6h59.1
		V585.2H182.8v55.9h77.9c-2.7,39.4-30.4,68.5-72,68.5c-51.5,0-86.4-43.9-86.4-109.2s34.9-108.3,85.5-108.3c36.2,0,60.9,21,69.4,57.3
		l63.1-21c-20.1-57.7-64.9-94-133.3-94C99.1,434.4,36,504.2,36,601.8c0,96.7,62.2,163.8,146.3,163.8c40.3,0,70.7-15.7,83.7-35.8
		V760.6z"/>
    </g>
</svg>